 <svg xmlns="http://www.w3.org/2000/svg" version="1.1" xmlns:xlink="http://www.w3.org/1999/xlink" width="512"
        height="512" x="0" y="0" viewBox="0 0 64 64" style="enable-background:new 0 0 512 512" xml:space="preserve"
        class="">
        <g>
            <path
                d="M54.6 9.4c-3.9-3.9-10.2-3.9-14.1 0L32 17.9c-.8.8-.8 2 0 2.8s2 .8 2.8 0l8.5-8.5c2.3-2.3 6.1-2.3 8.5 0s2.3 6.1 0 8.5L38.4 34.1c-2.3 2.3-6.1 2.3-8.5 0-.8-.8-2-.8-2.8 0s-.8 2 0 2.8c1.9 2 4.5 2.9 7.1 2.9s5.1-1 7.1-2.9l13.4-13.4c3.8-3.9 3.8-10.2-.1-14.1z"
                fill="#000000" opacity="1" data-original="#000000"></path>
            <path
                d="m29.9 42.6-9.2 9.2c-2.3 2.3-6.1 2.3-8.5 0-2.3-2.3-2.3-6.1 0-8.5l13.4-13.4c2.3-2.3 6.1-2.3 8.5 0 .8.8 2 .8 2.8 0s.8-2 0-2.8c-3.9-3.9-10.2-3.9-14.1 0L9.4 40.5c-3.9 3.9-3.9 10.2 0 14.1 1.9 1.9 4.5 2.9 7.1 2.9s5.1-1 7.1-2.9l9.2-9.2c.8-.8.8-2 0-2.8-.9-.8-2.1-.8-2.9 0z"
                fill="#000000" opacity="1" data-original="#000000"></path>
        </g>
    </svg>